<?xml version="1.0" standalone="no"?>
<!DOCTYPE svg PUBLIC "-//W3C//DTD SVG 20010904//EN"
 "http://www.w3.org/TR/2001/REC-SVG-20010904/DTD/svg10.dtd">
<svg version="1.0" xmlns="http://www.w3.org/2000/svg"
 width="485.000000pt" height="485.000000pt" viewBox="0 0 485.000000 485.000000"
 preserveAspectRatio="xMidYMid meet">

<g transform="translate(0.000000,485.000000) scale(0.100000,-0.100000)"
fill="#000000" stroke="none">
<path d="M2242 4279 c-646 -55 -1197 -434 -1477 -1014 -246 -509 -230 -1105
42 -1624 361 -689 1113 -1053 1903 -920 152 26 222 46 218 64 -3 14 -112 159
-263 349 -43 56 -112 144 -152 198 l-73 96 -87 7 c-255 18 -455 96 -641 249
-189 154 -333 406 -373 650 -16 102 -6 297 21 400 85 328 314 597 621 729 118
50 185 67 308 76 299 23 568 -66 787 -260 266 -234 396 -568 354 -907 l-12
-102 68 -73 c38 -40 156 -188 262 -330 107 -141 197 -257 201 -257 12 0 96
185 135 299 20 58 49 161 63 230 25 116 27 144 27 351 -1 205 -3 236 -28 355
-49 236 -134 439 -264 635 -362 545 -996 854 -1640 799z"/>
<path d="M2565 2211 c-112 -31 -248 -98 -259 -128 -7 -17 95 -154 315 -428
102 -126 263 -333 358 -460 94 -126 200 -266 235 -311 208 -264 559 -355 875
-225 83 34 151 77 151 95 0 8 -93 135 -207 283 -114 147 -263 342 -332 433
-388 512 -450 583 -579 659 -117 69 -207 94 -357 98 -105 2 -144 -1 -200 -16z"/>
</g>
</svg>
