<?xml version="1.0" encoding="UTF-8"?>
<!DOCTYPE svg PUBLIC "-//W3C//DTD SVG 1.1//EN" "http://www.w3.org/Graphics/SVG/1.1/DTD/svg11.dtd">
<svg xmlns="http://www.w3.org/2000/svg" version="1.1" width="189px" height="189px" style="shape-rendering:geometricPrecision; text-rendering:geometricPrecision; image-rendering:optimizeQuality; fill-rule:evenodd; clip-rule:evenodd" xmlns:xlink="http://www.w3.org/1999/xlink">
<g><path style="opacity:0.004" fill="#000000" d="M 41.5,0.5 C 42.8333,1.16667 42.8333,1.16667 41.5,0.5 Z"/></g>
<g><path style="opacity:0.004" fill="#000000" d="M 179.5,0.5 C 180.833,1.16667 180.833,1.16667 179.5,0.5 Z"/></g>
<g><path style="opacity:0.004" fill="#000000" d="M 95.5,3.5 C 96.8333,4.16667 96.8333,4.16667 95.5,3.5 Z"/></g>
<g><path style="opacity:0.004" fill="#000000" d="M 44.5,6.5 C 45.8333,7.16667 45.8333,7.16667 44.5,6.5 Z"/></g>
<g><path style="opacity:0.004" fill="#000000" d="M 176.5,8.5 C 177.833,9.16667 177.833,9.16667 176.5,8.5 Z"/></g>
<g><path style="opacity:0.004" fill="#000000" d="M 86.5,9.5 C 87.8333,10.1667 87.8333,10.1667 86.5,9.5 Z"/></g>
<g><path style="opacity:0.004" fill="#000000" d="M 92.5,9.5 C 93.8333,10.1667 93.8333,10.1667 92.5,9.5 Z"/></g>
<g><path style="opacity:0.004" fill="#000000" d="M 14.5,11.5 C 15.8333,12.1667 15.8333,12.1667 14.5,11.5 Z"/></g>
<g><path style="opacity:0.004" fill="#000000" d="M 143.5,14.5 C 144.833,15.1667 144.833,15.1667 143.5,14.5 Z"/></g>
<g><path style="opacity:0.004" fill="#000000" d="M 110.5,15.5 C 111.833,16.1667 111.833,16.1667 110.5,15.5 Z"/></g>
<g><path style="opacity:0.004" fill="#000000" d="M 92.5,17.5 C 93.8333,18.1667 93.8333,18.1667 92.5,17.5 Z"/></g>
<g><path style="opacity:0.004" fill="#000000" d="M 50.5,19.5 C 51.8333,20.1667 51.8333,20.1667 50.5,19.5 Z"/></g>
<g><path style="opacity:0.004" fill="#000000" d="M 116.5,19.5 C 117.833,20.1667 117.833,20.1667 116.5,19.5 Z"/></g>
<g><path style="opacity:0.004" fill="#000000" d="M 185.5,22.5 C 186.833,23.1667 186.833,23.1667 185.5,22.5 Z"/></g>
<g><path style="opacity:0.207" fill="#3f3e3f" d="M 71.5,48.5 C 71.1667,48.5 70.8333,48.5 70.5,48.5C 70.5,40.8333 70.5,33.1667 70.5,25.5C 52.1667,25.5 33.8333,25.5 15.5,25.5C 20.233,24.8103 25.0664,24.1437 30,23.5C 43.7544,24.4899 57.5877,24.8233 71.5,24.5C 71.5,32.5 71.5,40.5 71.5,48.5 Z"/></g>
<g><path style="opacity:1" fill="#fafafa" d="M 118.5,88.5 C 118.5,80.5 118.5,72.5 118.5,64.5C 112.974,64.1786 107.64,64.5119 102.5,65.5C 102.5,86.1667 102.5,106.833 102.5,127.5C 107.64,128.488 112.974,128.821 118.5,128.5C 118.5,120.5 118.5,112.5 118.5,104.5C 137.167,104.5 155.833,104.5 174.5,104.5C 174.831,125.673 174.497,146.673 173.5,167.5C 155.167,167.5 136.833,167.5 118.5,167.5C 118.5,159.5 118.5,151.5 118.5,143.5C 107.833,143.5 97.1667,143.5 86.5,143.5C 86.5,117.5 86.5,91.5 86.5,65.5C 81.3595,64.5119 76.0262,64.1786 70.5,64.5C 70.5,72.5 70.5,80.5 70.5,88.5C 51.8333,88.5 33.1667,88.5 14.5,88.5C 14.1694,67.3267 14.5027,46.3267 15.5,25.5C 33.8333,25.5 52.1667,25.5 70.5,25.5C 70.5,33.1667 70.5,40.8333 70.5,48.5C 86.3246,49.4964 102.325,49.8297 118.5,49.5C 118.5,41.5 118.5,33.5 118.5,25.5C 136.902,24.1692 155.402,24.1692 174,25.5C 174.5,46.4974 174.667,67.4974 174.5,88.5C 155.833,88.5 137.167,88.5 118.5,88.5 Z"/></g>
<g><path style="opacity:0.004" fill="#000000" d="M 176.5,30.5 C 177.833,31.1667 177.833,31.1667 176.5,30.5 Z"/></g>
<g><path style="opacity:0.004" fill="#000000" d="M -0.5,42.5 C 0.833333,43.1667 0.833333,43.1667 -0.5,42.5 Z"/></g>
<g><path style="opacity:0.486" fill="#717171" d="M 118.5,25.5 C 118.5,33.5 118.5,41.5 118.5,49.5C 102.325,49.8297 86.3246,49.4964 70.5,48.5C 70.8333,48.5 71.1667,48.5 71.5,48.5C 86.8333,48.5 102.167,48.5 117.5,48.5C 117.175,40.6484 117.508,32.9818 118.5,25.5 Z"/></g>
<g><path style="opacity:0.004" fill="#000000" d="M 8.5,59.5 C 9.83333,60.1667 9.83333,60.1667 8.5,59.5 Z"/></g>
<g><path style="opacity:0.004" fill="#000000" d="M -0.5,68.5 C 0.833333,69.1667 0.833333,69.1667 -0.5,68.5 Z"/></g>
<g><path style="opacity:0.215" fill="#414141" d="M 86.5,65.5 C 81.5,65.5 76.5,65.5 71.5,65.5C 71.8254,73.3516 71.492,81.0182 70.5,88.5C 70.5,80.5 70.5,72.5 70.5,64.5C 76.0262,64.1786 81.3595,64.5119 86.5,65.5 Z"/></g>
<g><path style="opacity:0.227" fill="#414141" d="M 102.5,65.5 C 107.64,64.5119 112.974,64.1786 118.5,64.5C 118.5,72.5 118.5,80.5 118.5,88.5C 117.508,81.0182 117.175,73.3516 117.5,65.5C 112.5,65.5 107.5,65.5 102.5,65.5 Z"/></g>
<g><path style="opacity:0.004" fill="#000000" d="M 107.5,86.5 C 108.833,87.1667 108.833,87.1667 107.5,86.5 Z"/></g>
<g><path style="opacity:0.004" fill="#000000" d="M 152.5,90.5 C 153.833,91.1667 153.833,91.1667 152.5,90.5 Z"/></g>
<g><path style="opacity:0.004" fill="#000000" d="M 11.5,99.5 C 12.8333,100.167 12.8333,100.167 11.5,99.5 Z"/></g>
<g><path style="opacity:0.004" fill="#000000" d="M 179.5,101.5 C 180.833,102.167 180.833,102.167 179.5,101.5 Z"/></g>
<g><path style="opacity:0.004" fill="#000000" d="M 140.5,102.5 C 141.833,103.167 141.833,103.167 140.5,102.5 Z"/></g>
<g><path style="opacity:0.004" fill="#000000" d="M 170.5,102.5 C 171.833,103.167 171.833,103.167 170.5,102.5 Z"/></g>
<g><path style="opacity:0.004" fill="#000000" d="M 185.5,103.5 C 186.833,104.167 186.833,104.167 185.5,103.5 Z"/></g>
<g><path style="opacity:0.004" fill="#000000" d="M 68.5,106.5 C 69.8333,107.167 69.8333,107.167 68.5,106.5 Z"/></g>
<g><path style="opacity:0.004" fill="#000000" d="M 65.5,110.5 C 66.8333,111.167 66.8333,111.167 65.5,110.5 Z"/></g>
<g><path style="opacity:0.004" fill="#000000" d="M 23.5,122.5 C 24.8333,123.167 24.8333,123.167 23.5,122.5 Z"/></g>
<g><path style="opacity:0.222" fill="#414141" d="M 118.5,104.5 C 118.5,112.5 118.5,120.5 118.5,128.5C 112.974,128.821 107.64,128.488 102.5,127.5C 107.5,127.5 112.5,127.5 117.5,127.5C 117.175,119.648 117.508,111.982 118.5,104.5 Z"/></g>
<g><path style="opacity:0.004" fill="#000000" d="M 74.5,138.5 C 75.8333,139.167 75.8333,139.167 74.5,138.5 Z"/></g>
<g><path style="opacity:0.004" fill="#000000" d="M 59.5,139.5 C 60.8333,140.167 60.8333,140.167 59.5,139.5 Z"/></g>
<g><path style="opacity:0.004" fill="#000000" d="M 179.5,145.5 C 180.833,146.167 180.833,146.167 179.5,145.5 Z"/></g>
<g><path style="opacity:0.004" fill="#000000" d="M 83.5,146.5 C 84.8333,147.167 84.8333,147.167 83.5,146.5 Z"/></g>
<g><path style="opacity:0.004" fill="#000000" d="M 92.5,151.5 C 93.8333,152.167 93.8333,152.167 92.5,151.5 Z"/></g>
<g><path style="opacity:0.004" fill="#000000" d="M 59.5,153.5 C 60.8333,154.167 60.8333,154.167 59.5,153.5 Z"/></g>
<g><path style="opacity:0.004" fill="#000000" d="M 50.5,156.5 C 51.8333,157.167 51.8333,157.167 50.5,156.5 Z"/></g>
<g><path style="opacity:0.004" fill="#000000" d="M 107.5,162.5 C 108.833,163.167 108.833,163.167 107.5,162.5 Z"/></g>
<g><path style="opacity:0.221" fill="#4c4c4c" d="M 86.5,143.5 C 97.1667,143.5 107.833,143.5 118.5,143.5C 118.5,151.5 118.5,159.5 118.5,167.5C 136.833,167.5 155.167,167.5 173.5,167.5C 155.007,168.497 136.341,168.83 117.5,168.5C 117.08,160.647 117.08,152.647 117.5,144.5C 106.986,144.828 96.6532,144.494 86.5,143.5 Z"/></g>
<g><path style="opacity:0.004" fill="#000000" d="M 62.5,174.5 C 63.8333,175.167 63.8333,175.167 62.5,174.5 Z"/></g>
<g><path style="opacity:0.004" fill="#000000" d="M 95.5,184.5 C 96.8333,185.167 96.8333,185.167 95.5,184.5 Z"/></g>
<g><path style="opacity:0.004" fill="#000000" d="M 8.5,185.5 C 9.83333,186.167 9.83333,186.167 8.5,185.5 Z"/></g>
<g><path style="opacity:0.004" fill="#000000" d="M 129.5,188.5 C 128.833,187.167 128.833,187.167 129.5,188.5 Z"/></g>
</svg>
