<?xml version="1.0" encoding="UTF-8"?>
<svg version="1.1" xmlns="http://www.w3.org/2000/svg" width="252" height="252">
<path d="M0 0 C0.66902344 0.55300781 1.33804688 1.10601562 2.02734375 1.67578125 C21.9938433 18.78409068 31.95091814 42.09906056 34.36328125 67.8828125 C34.94329606 84.02379598 31.30688121 105.07171547 21 118 C17.8054331 116.63212735 16.10832291 115.21982233 14.046875 112.4375 C13.51384766 111.72754883 12.98082031 111.01759766 12.43164062 110.28613281 C11.87669922 109.53170898 11.32175781 108.77728516 10.75 108 C9.58927085 106.45257777 8.42781481 104.9057005 7.265625 103.359375 C6.70552734 102.60978516 6.14542969 101.86019531 5.56835938 101.08789062 C3.58238199 98.44404277 1.55609561 95.83973874 -0.5 93.25 C-1.0671875 92.53328125 -1.634375 91.8165625 -2.21875 91.078125 C-4.01677694 88.84495782 -4.01677694 88.84495782 -6.71484375 86.859375 C-10.07389351 82.65625633 -9.38708923 79.19250686 -9.0625 74 C-8.62196387 59.12903266 -12.28359695 47.38843815 -22.51171875 36.26953125 C-32.95709596 26.18177038 -44.11770334 21.98826074 -58.62109375 22.00390625 C-74.26795876 22.79551298 -86.20425254 28.5965449 -97 40 C-105.00334591 49.50015487 -108.72322151 62.62178563 -108 75 C-105.13551292 90.84269393 -99.18658909 103.80196749 -85.5625 113.375 C-79.65546363 116.9617768 -73.99782423 119.98969783 -66.97265625 120.1953125 C-54.90671284 120.60755768 -54.90671284 120.60755768 -50.8125 124.77734375 C-48.37802559 127.71039987 -46.29492988 130.85580101 -44.25732422 134.07324219 C-42.23377802 137.17417939 -39.92001192 140.03546169 -37.625 142.9375 C-36.80618553 144.00466695 -35.98966799 145.07360137 -35.17578125 146.14453125 C-33.87039274 147.85770719 -32.55765887 149.56537641 -31.23046875 151.26171875 C-29.8125 153.125 -29.8125 153.125 -28 156 C-28.33 156.99 -28.66 157.98 -29 159 C-48.83482558 167.63262423 -73.74707529 164.25804404 -93.25 156.6875 C-116.09267874 146.48382029 -133.45921941 129.57262218 -143.5 106.5625 C-152.58759172 82.76166455 -152.58946317 57.27932217 -142.5 33.75 C-138.36399557 24.64534017 -132.61909922 16.4744905 -126 9 C-125.34 9 -124.68 9 -124 9 C-123.79375 8.443125 -123.5875 7.88625 -123.375 7.3125 C-115.75153674 -5.50877912 -95.9262031 -13.19464832 -82.38671875 -17.15234375 C-54.03546023 -24.24833348 -22.75446175 -18.81477339 0 0 Z " fill="#FDFDFD" transform="translate(183,54)"/>
<path d="M0 0 C2.69398009 2.45003702 4.88348342 4.82277687 6.984375 7.8046875 C6.984375 8.7946875 6.984375 9.7846875 6.984375 10.8046875 C7.62375 11.0521875 8.263125 11.2996875 8.921875 11.5546875 C10.984375 12.8046875 10.984375 12.8046875 11.734375 14.9296875 C11.816875 15.5484375 11.899375 16.1671875 11.984375 16.8046875 C12.644375 16.8046875 13.304375 16.8046875 13.984375 16.8046875 C15.29003906 18.28442383 15.29003906 18.28442383 16.75 20.32421875 C17.28173828 21.05721191 17.81347656 21.79020508 18.36132812 22.54541016 C18.89693359 23.29097168 19.43253906 24.0365332 19.984375 24.8046875 C20.93440765 26.0817334 21.88742309 27.35656702 22.84375 28.62890625 C23.31458008 29.25837158 23.78541016 29.88783691 24.27050781 30.53637695 C28.55423397 36.25968087 32.85913443 41.96347867 37.234375 47.6171875 C41.59912411 53.26734816 45.8224726 59.00360008 49.984375 64.8046875 C48.49479061 68.99187289 46.13752576 70.10372276 42.234375 71.9921875 C41.20828125 72.50136719 40.1821875 73.01054687 39.125 73.53515625 C29.44041481 77.44994504 19.62772845 76.11453527 9.984375 72.8046875 C-0.06960259 68.08518166 -6.26732967 61.08297856 -12.57421875 52.171875 C-16.19445065 47.11073148 -20.07986684 42.24803303 -23.91625977 37.3503418 C-25.62076629 35.17208096 -27.31961588 32.98956953 -29.015625 30.8046875 C-29.59795898 30.05880371 -30.18029297 29.31291992 -30.78027344 28.54443359 C-31.32973633 27.82980957 -31.87919922 27.11518555 -32.4453125 26.37890625 C-32.94015137 25.73912842 -33.43499023 25.09935059 -33.94482422 24.44018555 C-35.015625 22.8046875 -35.015625 22.8046875 -35.015625 20.8046875 C-35.675625 20.8046875 -36.335625 20.8046875 -37.015625 20.8046875 C-38.70056237 18.62768877 -40.27757125 16.44957031 -41.828125 14.1796875 C-42.68636913 12.9358178 -43.54703571 11.69361594 -44.41015625 10.453125 C-44.83506348 9.84178711 -45.2599707 9.23044922 -45.69775391 8.60058594 C-46.99977842 6.82628206 -48.3891153 5.18498839 -49.83984375 3.53125 C-52.015625 0.8046875 -52.015625 0.8046875 -52.015625 -2.1953125 C-34.21260086 -11.92273806 -16.42527606 -13.57123873 0 0 Z " fill="#FDFDFD" transform="translate(170.015625,146.1953125)"/>
<path d="M0 0 C1.32 0.33 2.64 0.66 4 1 C4 1.66 4 2.32 4 3 C-0.22949995 5.41685712 -3.12335991 6.34833144 -8 6 C-8 5.34 -8 4.68 -8 4 C-5.36 3.01 -2.72 2.02 0 1 C0 0.67 0 0.34 0 0 Z " fill="#F5F5F5" transform="translate(211,214)"/>
</svg>
